<?xml version="1.0" standalone="no"?>
<!DOCTYPE svg PUBLIC "-//W3C//DTD SVG 20010904//EN"
 "http://www.w3.org/TR/2001/REC-SVG-20010904/DTD/svg10.dtd">
<svg version="1.0" xmlns="http://www.w3.org/2000/svg"
 width="121.000000pt" height="121.000000pt" viewBox="0 0 121.000000 121.000000"
 preserveAspectRatio="xMidYMid meet">

<g transform="translate(0.000000,121.000000) scale(0.100000,-0.100000)"
fill="#000000" stroke="none">
<path d="M174 1180 c-67 -38 -128 -109 -154 -178 -20 -53 -21 -71 -18 -406 l3
-351 28 -50 c40 -72 103 -134 167 -164 l55 -26 360 0 360 0 53 30 c70 38 136
112 162 182 20 54 21 71 18 412 -3 350 -3 357 -26 399 -34 65 -97 128 -155
157 l-51 25 -375 0 -376 0 -51 -30z m796 -120 c22 -11 52 -39 67 -62 l28 -42
3 -337 c3 -325 2 -340 -18 -379 -20 -40 -77 -86 -115 -92 -16 -2 -21 5 -28 37
-29 134 -42 178 -76 250 -112 237 -342 418 -596 470 -44 9 -84 20 -88 24 -5 5
1 27 12 49 20 40 58 73 102 91 13 5 169 10 347 10 305 1 325 0 362 -19z m-743
-295 c217 -51 409 -218 492 -427 34 -88 55 -178 43 -190 -5 -5 -49 -8 -97 -6
l-88 3 -14 58 c-35 156 -193 325 -347 372 l-71 22 -3 78 c-3 79 1 105 15 105
4 0 36 -7 70 -15z m38 -365 c70 -43 147 -157 157 -230 3 -24 1 -25 -67 -28
-85 -3 -133 20 -179 86 -26 37 -31 54 -34 118 -6 103 -3 107 49 89 23 -8 56
-24 74 -35z"/>
</g>
</svg>
